# xmcd
#
# Track frame offsets:
#	150
#	17070
#	33759
#	50207
#	65378
#	79747
#	94887
#	110231
#	125932
#	140234
#	156314
#	172874
#	189673
#
# Disc length: 2797 seconds
#
# Revision: 0
# Processed by: cddbd v1.5.1PL2 Copyright (c) Steve Scherf et al.
# Submitted via: dBpowerAMP V4.0
#
DISCID=be0aeb0d
DTITLE=Dave Sheriff - Overworked Underpaid
DYEAR=2006
DGENRE=Country
TTITLE0=Overworked and Underpaid
TTITLE1=Red Hot Rock 'n' Roller
TTITLE2=A Beautiful Day
TTITLE3=Live For Today
TTITLE4=A Friend in Need
TTITLE5=No Better Life Than A Good Life
TTITLE6=Dance Like There's Nobody Watching
TTITLE7=Better Late Than Never
TTITLE8=My Baby's Never Wrong
TTITLE9=Wake Up Wake Up!
TTITLE10=Get A New Love In Your Life
TTITLE11=(I wish I had a) Bassman Like The Jordanaires
TTITLE12=Boogie With My Baby
EXTD=
EXTT0=
EXTT1=
EXTT2=
EXTT3=
EXTT4=
EXTT5=
EXTT6=
EXTT7=
EXTT8=
EXTT9=
EXTT10=
EXTT11=
EXTT12=
PLAYORDER=
